<?xml version="1.0" encoding="iso-8859-1"?>
<!-- Generator: Adobe Illustrator 16.0.0, SVG Export Plug-In . SVG Version: 6.00 Build 0)  -->
<!DOCTYPE svg PUBLIC "-//W3C//DTD SVG 1.1//EN" "http://www.w3.org/Graphics/SVG/1.1/DTD/svg11.dtd">
<svg version="1.1" id="Capa_1" xmlns="http://www.w3.org/2000/svg" xmlns:xlink="http://www.w3.org/1999/xlink" x="0px" y="0px"
	 width="31.999px" height="32px" viewBox="0 0 31.999 32" xml:space="preserve">
<g>
	<path d="M31.609,6.08c0,0,0.37-0.847,0-0.895c-0.369-0.047-4.867,0.788-7.051,2.327c-1.105,0.934-4.983,3.07-7.279,7.763
		c-0.388-0.151-0.893-0.064-0.929-0.233c-0.06-0.279,0.449-0.792,0.454-0.796c0.223-0.222,0.36-0.528,0.36-0.866
		c0-0.674-0.547-1.221-1.223-1.221c-0.674,0-1.221,0.547-1.221,1.221c0,0.338,0.138,0.644,0.36,0.865
		c0.002,0.002,0.454,0.577,0.353,0.864c-0.053,0.147-0.342,0.167-0.616,0.328C12.538,10.6,8.562,8.413,7.44,7.466
		C5.257,5.928,0.759,5.093,0.39,5.14c-0.37,0.047,0,0.895,0,0.895s-0.584,1.014-0.322,1.324C0.33,7.669,0.091,8.338,0.39,8.648
		c0.299,0.31-0.322,1.527,0.286,1.79c0.608,0.262,0.084,1.193,0.466,1.61c0.381,0.417,0.453,1.098,0.644,1.289
		c0.191,0.191,0.478,0.203,0.322,1.324c-0.156,1.121,0.871,1.026,1.252,2.47c0.382,1.442,3.15,1.682,3.15,1.682l-1.468,2.398
		l-0.179,1.503l0.286,1.86l1.038,0.716l0.18,0.753l1.146,0.143l1.108,0.573h1.11h0.931l1.288-0.608c0,0,0.931-0.144,1.182-0.179
		c0.053-3.117,1.351-4.769,2.029-5.422c0.012,0.062,0.023,0.125,0.035,0.188c0.394,2.147,0.604,4.685,0.746,6.122
		c0-1.113,0.305-3.762,0.765-6.156c0.013-0.065,0.024-0.131,0.039-0.195c0.643,0.584,2.064,2.239,2.121,5.508
		c0.251,0.036,1.182,0.179,1.182,0.179l1.288,0.608h0.931h1.109l1.109-0.573l1.146-0.143l0.179-0.752l1.038-0.717l0.286-1.86
		l-0.179-1.503l-1.469-2.398c0,0,2.77-0.239,3.15-1.683s1.408-1.349,1.252-2.47c-0.155-1.121,0.132-1.133,0.322-1.324
		c0.19-0.191,0.263-0.871,0.645-1.289s-0.143-1.349,0.467-1.611c0.606-0.262-0.013-1.479,0.285-1.79
		c0.299-0.31,0.061-0.979,0.322-1.289C32.193,7.095,31.609,6.08,31.609,6.08z"/>
</g>
<g>
</g>
<g>
</g>
<g>
</g>
<g>
</g>
<g>
</g>
<g>
</g>
<g>
</g>
<g>
</g>
<g>
</g>
<g>
</g>
<g>
</g>
<g>
</g>
<g>
</g>
<g>
</g>
<g>
</g>
</svg>
